PathFileType	4	(X/Y/Z)	70_2_48_p0_0-320_filt_butterworth.trc
DataRate	CameraRate	NumFrames	NumMarkers	Units	OrigDataRate	OrigDataStartFrame	OrigNumFrames
49.0	49.0	6	27	m	49.0	280	320
Frame#	Time	RHip			RKnee			RAnkle			RBigToe			RSmallToe			RHeel			LHip			LKnee			LAnkle			LBigToe			LSmallToe			LHeel			Neck			Head			Nose			RShoulder			RElbow			RWrist			RThumb			RIndex			RPinky			LShoulder			LElbow			LWrist			LThumb			LIndex			LPinky			
		X1	Y1	Z1	X2	Y2	Z2	X3	Y3	Z3	X4	Y4	Z4	X5	Y5	Z5	X6	Y6	Z6	X7	Y7	Z7	X8	Y8	Z8	X9	Y9	Z9	X10	Y10	Z10	X11	Y11	Z11	X12	Y12	Z12	X13	Y13	Z13	X14	Y14	Z14	X15	Y15	Z15	X16	Y16	Z16	X17	Y17	Z17	X18	Y18	Z18	X19	Y19	Z19	X20	Y20	Z20	X21	Y21	Z21	X22	Y22	Z22	X23	Y23	Z23	X24	Y24	Z24	X25	Y25	Z25	X26	Y26	Z26	X27	Y27	Z27	
280	5.714285714285714	0.36083018946281353	0.4925986615389856	0.09391381366991372	0.357382944521881	0.6659076159874664	0.5001597300098051	0.3641601553516534	0.8086223094408731	0.9309539210854454	0.32797724714668064	0.6428546308140948	1.0084632118591044	0.40417124505382557	0.6396472413521533	0.9999282703784332	0.35773505922755766	0.9081789298103637	0.9897214855756221	0.12262594413480786	0.5945889959002272	0.10329250208375886	0.13939258248855257	0.7021441542761099	0.5115807028748943	0.16702529619146914	0.8171066066217094	0.92448943083147	0.16705273653937783	0.6437030390387078	0.9844770445154299	0.10880757437736333	0.7077055553306654	0.9779466590781495	0.19611717395716327	0.8478677348569819	0.9678403955015298	0.21232745894007693	0.35021140088788805	-0.4498722243222014	0.1824559108422244	0.25154120351542575	-0.691695565287002	0.1769350046609206	0.2566109959333965	-0.535688696006389	0.3812582156016026	0.36239975778361355	-0.36285054764833563	0.4279571593835749	0.37383490900175986	-0.08002883974140984	0.36458574186227516	0.3160165325283517	0.14664705849755238	0.2991902103908382	0.37902460466455395	0.2557295076172485	0.31848965137500623	0.39941418195332123	0.2817556153294051	0.3681272892243931	0.3552821127986442	0.273106946677215	0.05544424214987077	0.4374510419038154	-0.35893998434591756	0.009919187818322203	0.451476984570796	-0.08458074282236096	0.023025759579965017	0.4328359883214509	0.15001011239761647	0.09196077925667828	0.40308982391230685	0.23942268798261837	0.05041850596628432	0.3667749907722311	0.2784429996786164	0.022683757357425286	0.41432108497672326	0.28497753996005243
281	5.73469387755102	0.36189327398064425	0.49658271220324596	0.09623466933414924	0.357673488462785	0.6659389860297267	0.4999482820734049	0.3641039608390273	0.8087805585754699	0.9297262898722545	0.32697953075573716	0.6488267793112565	1.010682134490335	0.4046448332099132	0.6400603763149636	0.9995931236763205	0.3583970698881667	0.9029051760606599	0.9879552855849121	0.12291094333780114	0.5915454784782965	0.10427428097826888	0.14123814409533955	0.7017545772214219	0.5125692847821822	0.16702887337051925	0.8171523601900539	0.9245956288225928	0.1670110792674765	0.6436120752355048	0.984498761148649	0.10873761787002194	0.7076638589531561	0.9780399594178276	0.19603432965516943	0.8481654310855462	0.966488138179608	0.21228554969388208	0.351252700343551	-0.4511242199030183	0.18227972873396636	0.25115952047173756	-0.6929756011956246	0.17671329569258087	0.2556880581690184	-0.5392110213667937	0.381243963487361	0.36276759023664396	-0.3628881301575517	0.4287978111592415	0.37563836876361545	-0.07979904128246376	0.37585041331065516	0.3303548941983205	0.14812871481666517	0.3157013579948869	0.39452848780705224	0.2653327835716036	0.33717912988989324	0.3991875112626481	0.28610914441276336	0.37647615733242995	0.36537498251708317	0.27668304813780686	0.0542533022705307	0.44066284703346137	-0.3593742403526633	0.010782747530007662	0.46383956204897875	-0.08709089435079113	0.017364232549688653	0.4381107370941725	0.15180426663347774	0.07761182615044429	0.42563581320872895	0.24492421953103174	0.03801067878640587	0.39471920896388535	0.28110993156482883	0.01454094419276009	0.43370396344200635	0.286873999857709
282	5.755102040816326	0.3612262265810612	0.49664206733569594	0.09805801454404309	0.3573547560571549	0.6638864854685942	0.5008381250731287	0.3640670518205741	0.8085788538033263	0.929345565614032	0.3254354383784628	0.6479067258270198	1.0103747047981797	0.4047938390550962	0.6404084278019132	0.9996416023934588	0.35863382239151015	0.900975751935093	0.9872525885895296	0.12052316229301241	0.5822066102777279	0.1037652072774527	0.14199913164758182	0.701940810431074	0.5154032026980919	0.1670283904260283	0.8171459170169929	0.9246210332405743	0.1669589895432561	0.6434482771269991	0.9845436348983551	0.10859178221085469	0.707556202397775	0.9781277785420102	0.1960925307046918	0.8483936055733167	0.9660450989177971	0.21127322871663023	0.35416493037016217	-0.4515127089183007	0.18220890935426365	0.250693784617865	-0.6939451834820209	0.1765403484531801	0.2549796869287409	-0.542309085289429	0.38216812068890915	0.3620332033979418	-0.3628546296429206	0.4313167699943943	0.3783679338369129	-0.08005729489704233	0.39551796709153614	0.35561225250702894	0.15227317628457193	0.33499512173782764	0.4004829223420591	0.27355308940576084	0.35485796489382326	0.3794873467309361	0.2848176618661392	0.3921583766377616	0.387031570039602	0.28027429394586	0.053758451711569094	0.44127749521194654	-0.3593680914544315	0.00974088896203286	0.4814945358925099	-0.08986393136673845	0.012356714748754175	0.4422530946674175	0.15243839105605972	0.05807223309249336	0.45368272108608027	0.24913624737362083	0.02736065156786232	0.4257444706671642	0.2833467373298437	0.003283729082559773	0.4504629447508205	0.2853709908032098
283	5.775510204081633	0.3582785139196181	0.4904270316235477	0.0987778103032379	0.3562750111020778	0.6615046214647928	0.5030116516199702	0.3640489420181566	0.808412163194285	0.9294154687002846	0.3237747220560829	0.638127399100244	1.0068802328038384	0.4045704206977009	0.640613722123606	0.999513638830779	0.35864515676182684	0.9008822712228257	0.9871666081817779	0.11495422494498965	0.5694510856950143	0.10299915732474778	0.1414015921170129	0.7027578950129983	0.5197868440481893	0.16700495870539772	0.8170705117659717	0.9246044267320643	0.16713430403459656	0.6433499943052348	0.9845510519171778	0.10845580675098326	0.7075767266139081	0.9781207428681369	0.19628598061852182	0.848534829597523	0.966870076479984	0.2104293173412029	0.3599467954840012	-0.4519757145874876	0.18262366576562825	0.2511810278423606	-0.6944353222715163	0.17652910520305826	0.25487842756103646	-0.5435466203637405	0.3837603861892667	0.36167956876270296	-0.36291724665474157	0.4349546767681265	0.38191900825154373	-0.08128285249638517	0.4170490705853677	0.38226151237591244	0.1574298865707457	0.35214183729613613	0.394500129635758	0.2767358304511104	0.36809321833532055	0.3562197316705605	0.2809729689408831	0.4150346357649824	0.4093263689988425	0.28405732728035493	0.05417102183738216	0.4410546928058383	-0.35943317855385976	0.005992923128703324	0.500779233858548	-0.09214377897376005	0.007134169679603954	0.45100396654010666	0.15219369317877482	0.041063792855212354	0.47049716670579617	0.2519953401485486	0.020231130837288277	0.4440670466839244	0.28460644118575124	-0.014851325824020871	0.4749704659011517	0.28102990279083306
284	5.795918367346939	0.3539569963442386	0.480467510732944	0.09878848905645166	0.354538340810278	0.660336062398803	0.5068310698824527	0.36404312564794794	0.8083800184230766	0.9295342946813823	0.3229359583296857	0.6265396109156905	1.0027400512160056	0.40416419554330163	0.640616301896189	0.9990543290231463	0.3584522585757418	0.9025172500783858	0.9877074533610599	0.10904081127174683	0.5575535057652345	0.1036333690409793	0.14030518922894894	0.7037382026203833	0.5233088636473215	0.16695123502578674	0.8170810035265114	0.9242404667330978	0.1676457073791464	0.6432937318218142	0.9843318000271752	0.1084095825659723	0.7077261774359213	0.9780144273476249	0.19634847147218962	0.8487556898204696	0.9691584001387517	0.21136724097928786	0.3668200230579296	-0.45270664407866923	0.18376837923102543	0.25495948279821823	-0.6952215893985819	0.1765614588241948	0.2549656622737085	-0.5437334834642598	0.38485706001238434	0.36171694647696734	-0.36305143389726635	0.43775446648794275	0.38481259784981725	-0.08304304455903408	0.43117414338171167	0.3988947418216229	0.16082805156908303	0.3633587591462523	0.38104604003840353	0.27541563882591324	0.3766730447001157	0.3463831370647026	0.2780598649888953	0.4362356847792161	0.4210691317485985	0.28697522744252507	0.05553149662337488	0.44123769762501264	-0.3595978156157832	0.0024513322413506466	0.517221466913063	-0.09288107197389202	0.0018821970604002518	0.4656636003623291	0.1518665176138781	0.0320485269325904	0.4709861700261749	0.252987268316271	0.014779759424135498	0.4502872030145827	0.2848445606368917	-0.03325562819544259	0.5073475566006241	0.27839738298771677
285	5.816326530612245	0.35019604315873804	0.4732300180681515	0.10030314506647552	0.3525757013339481	0.6599705004012697	0.5109402857390293	0.364025254106205	0.8084439735375427	0.9294889692443583	0.322913432704887	0.6202449317094512	1.0005232535959943	0.403843409654891	0.6404376504033369	0.9989201365343384	0.35781087366061404	0.9077713242867008	0.989468389145129	0.10563675774936405	0.5500419305197495	0.10630830906921422	0.13957379358467098	0.7043833193345752	0.5243432655143779	0.16698152783243148	0.8176117139543877	0.9235809514127935	0.16820906169925165	0.6432133190286649	0.9838848955143993	0.10858895642546283	0.7078696029618982	0.9783045828355936	0.195720160181506	0.8490147452373656	0.9715368055288724	0.21437481963541238	0.37264502034358465	-0.4534738374677063	0.18489852150533087	0.26254820232940357	-0.6970406308514415	0.17645620229557407	0.25471565720244516	-0.544660328333158	0.3850389793265555	0.36183530158576577	-0.3631804809437942	0.44064697484074483	0.38990005695403696	-0.08422903679233487	0.4366882721332892	0.4029401896176198	0.16100107524205023	0.3714404346655786	0.3715299089614991	0.2742424255735399	0.3862328378852956	0.35633969551246836	0.2790025514396122	0.4488010831875167	0.42253115930756024	0.28805133318888054	0.057362831849965754	0.44177574971275013	-0.3597663812539611	0.001358128917049205	0.5315592046242381	-0.09272141852302998	-0.0044662583412584216	0.48770833114014606	0.1512767328784217	0.02690327150109651	0.4702091517337378	0.25253228573503417	0.005630188240225755	0.46325034219362315	0.2847775473446752	-0.04371530499510178	0.5351652536438805	0.27981243794639865
